HIERARCHY
ROOT Hips
{
    OFFSET   0.000000   0.000000   0.000000
    CHANNELS 6 Xposition Yposition Zposition Zrotation Xrotation Yrotation
    JOINT Chest
    {
        OFFSET   0.000000   8.007240   0.000000
        CHANNELS 3 Zrotation Xrotation Yrotation
        JOINT Chest2
        {
            OFFSET   0.000000  22.077100   0.000000
            CHANNELS 3 Zrotation Xrotation Yrotation
            JOINT Neck
            {
                OFFSET   0.000000  23.254800   0.000000
                CHANNELS 3 Zrotation Xrotation Yrotation
                JOINT Head
                {
                    OFFSET   0.000000  14.370000   1.956600
                    CHANNELS 3 Zrotation Xrotation Yrotation
                    End Site
                    {
                        OFFSET   0.000000  19.566000   0.000000
                    }
                }
            }
            JOINT LeftCollar
            {
                OFFSET   3.911900  19.017000  -0.467064
                CHANNELS 3 Zrotation Xrotation Yrotation
                JOINT LeftShoulder
                {
                    OFFSET  10.383700   0.000000   0.000000
                    CHANNELS 3 Zrotation Xrotation Yrotation
                    JOINT LeftElbow
                    {
                        OFFSET  26.662100   0.001476   0.000517
                        CHANNELS 3 Zrotation Xrotation Yrotation
                        JOINT LeftWrist
                        {
                            OFFSET  28.869000  -0.000025  -0.000106
                            CHANNELS 3 Zrotation Xrotation Yrotation
                            JOINT LeftFinger0
                            {
                                OFFSET   2.044660  -2.323460   3.252850
                                CHANNELS 3 Zrotation Xrotation Yrotation
                                JOINT LeftFinger01
                                {
                                    OFFSET   3.088130   0.000000   0.000000
                                    CHANNELS 3 Zrotation Xrotation Yrotation
                                    JOINT LeftFinger02
                                    {
                                        OFFSET   2.639460   0.000000   0.000000
                                        CHANNELS 3 Zrotation Xrotation Yrotation
                                        End Site
                                        {
                                            OFFSET   2.582190   0.000000   0.000000
                                        }
                                    }
                                }
                            }
                            JOINT LeftFinger1
                            {
                                OFFSET   8.364480   0.000000   3.252850
                                CHANNELS 3 Zrotation Xrotation Yrotation
                                JOINT LeftFinger11
                                {
                                    OFFSET   4.646930   0.000000   0.000000
                                    CHANNELS 3 Zrotation Xrotation Yrotation
                                    JOINT LeftFinger12
                                    {
                                        OFFSET   2.323460   0.000000   0.000000
                                        CHANNELS 3 Zrotation Xrotation Yrotation
                                        End Site
                                        {
                                            OFFSET   2.273050   0.000000   0.000000
                                        }
                                    }
                                }
                            }
                            JOINT LeftFinger2
                            {
                                OFFSET   8.364490   0.000015   1.078090
                                CHANNELS 3 Zrotation Xrotation Yrotation
                                JOINT LeftFinger21
                                {
                                    OFFSET   5.111620   0.000000   0.000000
                                    CHANNELS 3 Zrotation Xrotation Yrotation
                                    JOINT LeftFinger22
                                    {
                                        OFFSET   2.788160   0.000016   0.000000
                                        CHANNELS 3 Zrotation Xrotation Yrotation
                                        End Site
                                        {
                                            OFFSET   2.727660   0.000000   0.000000
                                        }
                                    }
                                }
                            }
                            JOINT LeftFinger3
                            {
                                OFFSET   7.899780   0.000017  -1.078090
                                CHANNELS 3 Zrotation Xrotation Yrotation
                                JOINT LeftFinger31
                                {
                                    OFFSET   4.646930   0.000000   0.000000
                                    CHANNELS 3 Zrotation Xrotation Yrotation
                                    JOINT LeftFinger32
                                    {
                                        OFFSET   2.323470   0.000000   0.000000
                                        CHANNELS 3 Zrotation Xrotation Yrotation
                                        End Site
                                        {
                                            OFFSET   2.273050   0.000000   0.000000
                                        }
                                    }
                                }
                            }
                            JOINT LeftFinger4
                            {
                                OFFSET   7.435090   0.000000  -3.252850
                                CHANNELS 3 Zrotation Xrotation Yrotation
                                JOINT LeftFinger41
                                {
                                    OFFSET   3.717550   0.000000   0.000000
                                    CHANNELS 3 Zrotation Xrotation Yrotation
                                    JOINT LeftFinger42
                                    {
                                        OFFSET   1.858770   0.000000   0.000000
                                        CHANNELS 3 Zrotation Xrotation Yrotation
                                        End Site
                                        {
                                            OFFSET   1.818440   0.000000   0.000000
                                        }
                                    }
                                }
                            }
                        }
                    }
                }
            }
            JOINT RightCollar
            {
                OFFSET  -3.911900  19.017000  -0.467063
                CHANNELS 3 Zrotation Xrotation Yrotation
                JOINT RightShoulder
                {
                    OFFSET -10.383700   0.000019   0.000000
                    CHANNELS 3 Zrotation Xrotation Yrotation
                    JOINT RightElbow
                    {
                        OFFSET -26.662100   0.001175   0.000102
                        CHANNELS 3 Zrotation Xrotation Yrotation
                        JOINT RightWrist
                        {
                            OFFSET -28.869000   0.000016  -0.000079
                            CHANNELS 3 Zrotation Xrotation Yrotation
                            JOINT RightFinger0
                            {
                                OFFSET  -2.044660  -2.323490   3.252850
                                CHANNELS 3 Zrotation Xrotation Yrotation
                                JOINT RightFinger01
                                {
                                    OFFSET  -3.088140   0.000000   0.000000
                                    CHANNELS 3 Zrotation Xrotation Yrotation
                                    JOINT RightFinger02
                                    {
                                        OFFSET  -2.639460   0.000000   0.000000
                                        CHANNELS 3 Zrotation Xrotation Yrotation
                                        End Site
                                        {
                                            OFFSET  -2.582190   0.000000   0.000000
                                        }
                                    }
                                }
                            }
                            JOINT RightFinger1
                            {
                                OFFSET  -8.364480   0.000000   3.252850
                                CHANNELS 3 Zrotation Xrotation Yrotation
                                JOINT RightFinger11
                                {
                                    OFFSET  -4.646930   0.000000   0.000000
                                    CHANNELS 3 Zrotation Xrotation Yrotation
                                    JOINT RightFinger12
                                    {
                                        OFFSET  -2.323470   0.000000   0.000000
                                        CHANNELS 3 Zrotation Xrotation Yrotation
                                        End Site
                                        {
                                            OFFSET  -2.273050   0.000000   0.000000
                                        }
                                    }
                                }
                            }
                            JOINT RightFinger2
                            {
                                OFFSET  -8.364480   0.000000   1.078090
                                CHANNELS 3 Zrotation Xrotation Yrotation
                                JOINT RightFinger21
                                {
                                    OFFSET  -5.111620   0.000000   0.000000
                                    CHANNELS 3 Zrotation Xrotation Yrotation
                                    JOINT RightFinger22
                                    {
                                        OFFSET  -2.788160   0.000000   0.000000
                                        CHANNELS 3 Zrotation Xrotation Yrotation
                                        End Site
                                        {
                                            OFFSET  -2.727660   0.000000   0.000000
                                        }
                                    }
                                }
                            }
                            JOINT RightFinger3
                            {
                                OFFSET  -7.899780   0.000000  -1.078090
                                CHANNELS 3 Zrotation Xrotation Yrotation
                                JOINT RightFinger31
                                {
                                    OFFSET  -4.646930   0.000000   0.000000
                                    CHANNELS 3 Zrotation Xrotation Yrotation
                                    JOINT RightFinger32
                                    {
                                        OFFSET  -2.323470   0.000000   0.000000
                                        CHANNELS 3 Zrotation Xrotation Yrotation
                                        End Site
                                        {
                                            OFFSET  -2.273050   0.000000   0.000000
                                        }
                                    }
                                }
                            }
                            JOINT RightFinger4
                            {
                                OFFSET  -7.435090   0.000000  -3.252850
                                CHANNELS 3 Zrotation Xrotation Yrotation
                                JOINT RightFinger41
                                {
                                    OFFSET  -3.717550   0.000000   0.000000
                                    CHANNELS 3 Zrotation Xrotation Yrotation
                                    JOINT RightFinger42
                                    {
                                        OFFSET  -1.858770   0.000000   0.000000
                                        CHANNELS 3 Zrotation Xrotation Yrotation
                                        End Site
                                        {
                                            OFFSET  -1.818440   0.000000   0.000000
                                        }
                                    }
                                }
                            }
                        }
                    }
                }
            }
        }
    }
    JOINT LeftHip
    {
        OFFSET   9.783040   0.000000   0.000000
        CHANNELS 3 Zrotation Xrotation Yrotation
        JOINT LeftKnee
        {
            OFFSET   0.000032 -41.789100  -0.002222
            CHANNELS 3 Zrotation Xrotation Yrotation
            JOINT LeftAnkle
            {
                OFFSET   0.000087 -41.133200  -0.000135
                CHANNELS 3 Zrotation Xrotation Yrotation
                JOINT LeftToe
                {
                    OFFSET   0.000000  -6.358960  14.674500
                    CHANNELS 3 Zrotation Xrotation Yrotation
                    End Site
                    {
                        OFFSET   0.000000   0.000000   3.913200
                    }
                }
            }
        }
    }
    JOINT RightHip
    {
        OFFSET  -9.783040   0.000000   0.000000
        CHANNELS 3 Zrotation Xrotation Yrotation
        JOINT RightKnee
        {
            OFFSET   0.000047 -41.789100  -0.000896
            CHANNELS 3 Zrotation Xrotation Yrotation
            JOINT RightAnkle
            {
                OFFSET  -0.000117 -41.133300  -0.000248
                CHANNELS 3 Zrotation Xrotation Yrotation
                JOINT RightToe
                {
                    OFFSET   0.000000  -6.358970  14.674500
                    CHANNELS 3 Zrotation Xrotation Yrotation
                    End Site
                    {
                        OFFSET   0.000000   0.000000   3.913200
                    }
                }
            }
        }
    }
}
MOTION
Frames: 5
Frame Time:   0.016667
 -0.432365  89.444200   0.801923  -3.524360 -11.873700  -4.515190   1.436030   7.874010   0.498799   2.843010  15.758000   0.807624   2.310920   0.142737  -0.009226   3.794420   0.287879   4.889750  11.351200   2.892380   0.778487 -46.054200  -2.188430 -83.099100  -5.871970 -13.402200 -122.119000  47.837300   7.707300  19.536100  36.535300  30.870400 -74.341100  -1.133810  -0.001693   0.002286   4.433090   0.000845   0.000556 -25.270100   4.115260  -8.643140 -20.930400  -0.002986   0.005927 -14.651300  -0.003816   0.003400 -19.078500   1.820460  -5.246550 -19.162500   0.012205   0.005975 -12.762300   0.008215  -0.002609 -15.724700  -0.739683   2.629390 -15.741600   0.000106  -0.000528 -10.483900   0.007533  -0.000218  -9.691020  -0.862069   4.995540 -14.591500  -0.004443  -0.000935  -9.717870  -0.011370   0.000147 -12.493500   0.723609   1.338810  44.848400   0.366663  80.257100 -12.017900 -31.109900 115.589000 -39.166900  16.112700  -0.575535 -37.891600  34.188100  74.312100  29.156300  -0.002566   0.000759   9.578150  -0.006161   0.000184  28.675000   3.387940   6.171570  23.611100   0.010030   0.001044  16.527700   0.005986  -0.001695  22.539300   1.113280   2.680940  22.565400  -0.001191   0.004520  15.028600   0.002061  -0.002620  22.840100  -0.332057  -0.787504  22.842500  -0.000728   0.002434  15.213100   0.012835  -0.003472  26.873100  -3.290270  -6.461260  40.588500   0.009081  -0.000600  27.031900   0.007726   0.000238   2.904830  15.830100   1.942020   1.643710   0.212226  -0.037093  -2.719830  -3.867160  11.494300   0.000000   0.000000   0.000000   1.978390   9.961480  -6.263310   0.988735   6.283550   4.260410  -4.917740  -3.605760   1.072520   0.000000   0.000000  -0.000000
 -0.432525  89.447700   0.851721  -3.542530 -11.873600  -4.583390   1.432380   7.850620   0.493280   2.836350  15.711000   0.797509   2.311220   0.132091  -0.009333   3.795390   0.266480   4.897420  11.369100   2.902840   0.766217 -46.032900  -2.195900 -83.076300  -5.769560 -13.489800 -122.143000  47.801400   7.691690  19.644100  36.504800  30.797100 -74.277400  -1.198050  -0.001609   0.002099   4.400970   0.000801   0.000485 -25.344700   4.029790  -8.436640 -20.981000  -0.002860   0.006393 -14.686700  -0.003781   0.003525 -19.168700   1.768270  -5.067900 -19.248600   0.012105   0.005986 -12.819600   0.008160  -0.002763 -16.002100  -0.815865   2.859160 -16.022700   0.000226  -0.000418 -10.671100   0.007451  -0.000179 -10.006400  -0.889017   4.966730 -15.065800  -0.009968  -0.000764 -10.033800  -0.011512   0.000196 -12.462100   0.759479   1.349120  44.835200   0.344462  80.248500 -12.288300 -31.110100 115.728000 -39.233600  16.146700  -0.703842 -37.901400  34.279500  74.372700  29.224200  -0.002610   0.000786   9.612100  -0.006157   0.000179  28.761800   3.429280   6.220070  23.684900   0.010159   0.001020  16.579400   0.006103  -0.001744  22.621700   1.152410   2.764290  22.649500  -0.001184   0.004594  15.084600   0.001941  -0.002576  22.917900  -0.297451  -0.702226  22.919800  -0.000750   0.002532  15.264600   0.012949  -0.003447  26.986900  -3.252020  -6.355340  40.751500   0.008984  -0.000598  27.140500   0.007714   0.000353   2.895900  15.891400   1.948180   1.650960   0.178906  -0.015247  -2.718470  -3.883270  11.535400  -0.000000   0.000000   0.000000   1.982540   9.990470  -6.276130   0.977526   6.290160   4.292270  -4.914640  -3.634540   1.114020   0.000000   0.000000  -0.000000
 -0.432723  89.452200   0.902084  -3.562280 -11.872500  -4.647530   1.428230   7.826500   0.485190   2.829050  15.662600   0.782264   2.308460   0.122508  -0.009437   3.791620   0.247000   4.890360  11.378600   2.894680   0.759196 -45.973800  -2.212830 -83.056800  -5.675270 -13.571100 -122.165000  47.794000   7.792440  19.624400  36.669600  31.100700 -74.503100  -0.818918  -0.001530   0.001902   4.590530   0.000761   0.000416 -25.280600   4.126030  -8.662810 -20.940000  -0.002735   0.006859 -14.658000  -0.003745   0.003651 -19.128600   1.871290  -5.378950 -19.216600   0.012006   0.005999 -12.798300   0.008105  -0.002917 -15.743300  -0.787271   2.795650 -15.762400   0.000343  -0.000315 -10.497800   0.007374  -0.000132  -9.320360  -0.846809   5.162740 -14.036500  -0.009954  -0.000597  -9.348300  -0.009766   0.000237 -12.431300   0.764961   1.352830  44.861200   0.396598  80.170600 -12.736000 -31.094700 115.948000 -39.308200  16.190200  -0.941020 -37.883000  34.316100  74.338100  29.325400  -0.002654   0.000813   9.662680  -0.006154   0.000179  28.853300   3.439210   6.210490  23.759600   0.010295   0.000994  16.631700   0.006218  -0.001789  22.731500   1.170460   2.792950  22.760100  -0.001177   0.004668  15.158200   0.001822  -0.002538  23.011300  -0.285069  -0.669377  23.013100  -0.000776   0.002627  15.326700   0.013060  -0.003422  27.085600  -3.231590  -6.288900  40.895100   0.008882  -0.000590  27.236200   0.007698   0.000469   2.892050  15.916800   1.956220   1.657500   0.216853   0.002637  -2.717100  -3.936210  11.572000  -0.000000   0.000000  -0.000000   1.988650  10.021400  -6.284210   0.964182   6.294390   4.327170  -4.911640  -3.662400   1.148780  -0.000000   0.000000  -0.000000
 -0.432953  89.456400   0.952877  -3.582410 -11.871300  -4.709310   1.424290   7.799470   0.474503   2.822520  15.608200   0.761793   2.301830   0.114439  -0.009543   3.781630   0.230649   4.883310  11.386800   2.886520   0.756501 -45.931900  -2.226480 -83.046900  -5.583120 -13.653600 -122.190000  47.804700   8.022270  19.565100  36.953800  31.520200 -74.819600  -0.439789  -0.001454   0.001706   4.780090   0.000719   0.000351 -25.162300   4.273970  -9.018330 -20.862300  -0.002607   0.007322 -14.603700  -0.003707   0.003779 -19.038100   2.030300  -5.868240 -19.141100   0.011904   0.006012 -12.748000   0.008047  -0.003071 -15.231200  -0.738587   2.704150 -15.248200   0.000466  -0.000214 -10.155300   0.007297  -0.000105  -8.070350  -0.777308   5.596170 -12.161500  -0.009855  -0.000432  -8.099590  -0.006518   0.000274 -12.402600   0.768600   1.356830  44.917800   0.512723  80.046800 -13.286800 -31.075800 116.207000 -39.374600  16.242200  -1.232960 -37.854400  34.344500  74.300000  29.440300  -0.002691   0.000837   9.720140  -0.006152   0.000180  28.943200   3.444200   6.200880  23.833400   0.010433   0.000968  16.683400   0.006332  -0.001833  22.851600   1.185470   2.812080  22.880800  -0.001168   0.004740  15.238600   0.001705  -0.002503  23.115300  -0.275672  -0.644105  23.117000  -0.000802   0.002722  15.395900   0.013168  -0.003398  27.181100  -3.214100  -6.229960  41.034400   0.008781  -0.000577  27.328900   0.007678   0.000586   2.889740  15.938700   1.961560   1.660970   0.254800   0.022996  -2.712570  -3.988860  11.605200   0.000000   0.000000  -0.000000   1.997440  10.047700  -6.288240   0.951666   6.299830   4.347880  -4.908820  -3.689690   1.180300   0.000000   0.000000   0.000000
 -0.433075  89.458800   1.004710  -3.601580 -11.864600  -4.769150   1.421770   7.766910   0.460451   2.819330  15.542800   0.734425   2.292650   0.110338  -0.009656   3.766630   0.222585   4.886030  11.403900   2.892250   0.775786 -45.918600  -2.174050 -83.064000  -5.413850 -13.747400 -122.226000  47.865700   8.343070  19.445400  37.119400  31.687200 -74.925600  -0.457272  -0.001392   0.001519   4.771350   0.000667   0.000295 -25.013000   4.385410  -9.309150 -20.756700  -0.002472   0.007778 -14.529800  -0.003671   0.003907 -18.881900   2.151980  -6.269910 -18.999000   0.011795   0.006019 -12.653300   0.007986  -0.003224 -14.477300  -0.686834   2.655670 -14.492600   0.000598  -0.000081  -9.652050   0.007218  -0.000130  -6.530580  -0.710470   6.209820  -9.857230  -0.004885  -0.000267  -6.564940  -0.002473   0.000306 -12.377400   0.782000   1.368840  44.997400   0.671867  79.930900 -13.893600 -31.039400 116.498000 -39.423200  16.321700  -1.555990 -37.825000  34.379400  74.270500  29.543800  -0.002710   0.000850   9.771860  -0.006155   0.000190  29.034500   3.464440   6.208370  23.909000   0.010573   0.000940  16.736300   0.006443  -0.001881  22.976100   1.219990   2.871680  23.006900  -0.001158   0.004812  15.322500   0.001591  -0.002471  23.238600  -0.245321  -0.569983  23.239900  -0.000826   0.002817  15.477800   0.013275  -0.003375  27.290000  -3.176260  -6.124690  41.189900   0.008682  -0.000562  27.432500   0.007655   0.000705   2.892780  15.985600   1.960360   1.657800   0.229854   0.053945  -2.706810  -4.008850  11.634600   0.000000   0.000000   0.000000   2.006910  10.062500  -6.268770   0.941039   6.311160   4.348030  -4.907930  -3.717010   1.208330   0.000000   0.000000   0.000000
